<svg xmlns="http://www.w3.org/2000/svg" width="1000" height="1000">
  <path fill="#190428" d="M0 0h1000v1000H0Z"/>
  <linearGradient id="a" x1="129.7" x2="825.8" y1="0" y2="0" gradientUnits="userSpaceOnUse">
    <stop offset="5%" stop-color="#c29bff"/>
    <stop offset="95%" stop-color="#9592ff"/>
  </linearGradient>
  <path fill="url(#a)" d="M761.4 285.8c-36.8 1.3-75.7-20-87.6-56-12.1-33.7-1.4-75.4 28.9-95.9 40-28 102-23 133.8 15.3 28 33.8 22.3 89.8-13 116.4a95 95 0 0 1-62.1 20.2"/>
  <path fill="url(#a)" d="M677.9 851.7V336.1h168v515.6z"/>
  <path fill="url(#a)" d="M298.2 860.5a241 241 0 0 1-89.3-15.6 144 144 0 0 1-56.2-40.2 117 117 0 0 1-16-24.1 159 159 0 0 1-15.2-67 176 176 0 0 1 9-64 132 132 0 0 1 57-67.8 219 219 0 0 1 58.8-23.7c26-6.8 52.8-10.8 79.6-12.9q35.1-2.8 69.9-8c11.4-2.1 23-4.7 33.5-9.7 5.1-2.3 10-5.8 13.2-10.4a30 30 0 0 0 5.1-18.8c.2-8.9-2-18-7-25.4a53 53 0 0 0-19.8-17.4 87 87 0 0 0-27.8-8.9 129 129 0 0 0-36.1.2 90 90 0 0 0-30 10 58 58 0 0 0-30.2 46.3H140.5c1.8-26.8 8.3-53.6 21.1-77.3a165 165 0 0 1 46.9-54.2 220 220 0 0 1 69.4-33.5c34.5-10 70.6-13.4 106.4-13.2a366 366 0 0 1 98.2 12.6 204 204 0 0 1 71.6 34.7c17 13.1 31.4 30 41.3 49.2 8.8 17 14.4 35.7 16.9 54.7q2.2 16.7 1.8 33.5v342.1h-164v-72.2h-2a167 167 0 0 1-38.1 47 146 146 0 0 1-60.2 28.7 230 230 0 0 1-51.6 5.3m51.3-109.9c17.6 0 35.4-3.4 51.3-11.2a88 88 0 0 0 37.3-32.1 77 77 0 0 0 11-41.7v-46.3c-12.7 5.4-26.1 9-39.6 11.8-16.2 3.4-32.6 6-48.8 9.1q-10 1.6-19.7 3.8a137 137 0 0 0-29.2 10.3 66 66 0 0 0-23.7 19.8 46 46 0 0 0-7.4 28.2c.3 9.2 3.3 18.3 9.1 25.4 6.4 8 15.2 13.9 24.8 17.5 11.1 4 23 5.4 34.9 5.4"/>
</svg>
